<?xml version="1.0" standalone="no"?>
<!DOCTYPE svg PUBLIC "-//W3C//DTD SVG 20010904//EN"
 "http://www.w3.org/TR/2001/REC-SVG-20010904/DTD/svg10.dtd">
<svg version="1.0" xmlns="http://www.w3.org/2000/svg"
 width="421.000000pt" height="421.000000pt" viewBox="0 0 421.000000 421.000000"
 preserveAspectRatio="xMidYMid meet">
<metadata>
Created by potrace 1.11, written by Peter Selinger 2001-2013
</metadata>
<g transform="translate(0.000000,421.000000) scale(0.100000,-0.100000)"
fill="#000000" stroke="none">
<path d="M1900 3665 c-50 -24 -100 -67 -100 -85 0 -4 -26 -2 -58 5 -131 27
-257 -21 -293 -112 -7 -19 -16 -23 -56 -22 -55 1 -92 -11 -144 -47 -34 -23
-42 -39 -64 -122 -4 -13 -24 -31 -47 -43 -56 -29 -96 -73 -125 -138 -22 -49
-25 -66 -21 -141 7 -116 46 -191 108 -205 69 -15 76 -43 85 -355 3 -96 7 -184
9 -195 5 -31 -12 -57 -31 -47 -25 15 -50 3 -67 -31 -26 -55 -10 -208 39 -363
6 -20 3 -22 -62 -22 -117 0 -123 -1 -150 -28 l-26 -26 8 -181 c7 -191 8 -204
20 -437 5 -80 9 -157 9 -172 1 -19 -13 -42 -51 -81 -46 -48 -133 -187 -117
-187 4 0 2 -6 -4 -12 -8 -11 -28 -71 -38 -113 -1 -5 -7 -30 -14 -55 -12 -45
-17 -65 -26 -109 -3 -14 -7 -28 -9 -32 -9 -13 20 -16 174 -18 85 -1 158 -4
163 -7 11 -7 2165 -7 2177 0 4 3 85 6 180 7 197 2 181 -10 151 119 -56 234
-106 338 -211 437 -27 25 -35 40 -33 61 2 15 6 90 9 167 3 77 7 163 10 190 6
72 19 343 18 389 -1 27 -9 46 -26 63 -21 22 -33 25 -110 26 -47 1 -88 5 -91 8
-4 3 -2 19 5 35 12 31 16 50 34 134 12 57 17 140 11 174 -9 49 -41 78 -72 66
-27 -11 -42 8 -38 50 1 14 5 81 8 150 8 146 13 221 21 309 13 139 19 161 43
161 20 0 71 58 73 83 2 30 4 35 12 43 12 12 8 92 -7 127 -16 38 -41 67 -78 91
-16 10 -28 25 -28 33 0 46 -101 188 -161 225 -41 26 -121 45 -155 38 -30 -7
-32 -5 -44 34 -14 49 -50 106 -67 106 -7 0 -13 4 -13 8 0 10 -67 32 -96 32
-11 0 -36 -9 -56 -20 l-37 -19 -18 22 c-38 48 -144 62 -215 27 -37 -18 -44
-18 -63 -6 -24 16 -65 25 -140 32 -39 4 -62 -1 -105 -21z"/>
</g>
</svg>
